<?xml version="1.0" encoding="UTF-8"?>
<svg width="127px" height="127px" viewBox="0 0 127 127" version="1.1" xmlns="http://www.w3.org/2000/svg" xmlns:xlink="http://www.w3.org/1999/xlink">
    <!-- Generator: Sketch 41.2 (35397) - http://www.bohemiancoding.com/sketch -->
    <title>emoticon</title>
    <desc>Created with Sketch.</desc>
    <defs></defs>
    <g id="Page-1" stroke="none" stroke-width="1" fill="none" fill-rule="evenodd">
        <g id="Artboard-3" transform="translate(-1782.000000, -1176.000000)">
            <g id="emoticon" transform="translate(1782.000000, 1176.000000)">
                <circle id="fill" fill="#FFC10E" cx="63.5" cy="63.417" r="63.333"></circle>
                <path d="M44.256,43.721 C49.7490241,43.721 54.202,39.5218787 54.202,34.342 C54.202,29.1621213 49.7490241,24.963 44.256,24.963 C38.7629759,24.963 34.31,29.1621213 34.31,34.342 C34.31,39.5218787 38.7629759,43.721 44.256,43.721 Z M63.499,114.677 C79.1325244,114.677 91.806,102.108737 91.806,86.605 C91.806,71.1012625 79.1325244,58.533 63.499,58.533 C47.8654756,58.533 35.192,71.1012625 35.192,86.605 C35.192,102.108737 47.8654756,114.677 63.499,114.677 Z M81.86,50.954 C91.0351065,50.954 98.473,43.5161065 98.473,34.341 C98.473,25.1658935 91.0351065,17.728 81.86,17.728 C72.6848935,17.728 65.247,25.1658935 65.247,34.341 C65.247,43.5161065 72.6848935,50.954 81.86,50.954 Z" id="Combined-Shape" fill="#333333"></path>
            </g>
        </g>
    </g>
</svg>