<?xml version="1.0" encoding="utf-8"?>
<!-- Generator: Adobe Illustrator 21.0.2, SVG Export Plug-In . SVG Version: 6.00 Build 0)  -->
<svg version="1.1" id="Layer_1" xmlns="http://www.w3.org/2000/svg" xmlns:xlink="http://www.w3.org/1999/xlink" x="0px" y="0px"
	 viewBox="0 0 512 512" style="enable-background:new 0 0 512 512;" xml:space="preserve">
<style type="text/css">
	.st0{fill:#F8E586;}
	.st1{fill:#DE6C52;}
	.st2{fill:url(#SVGID_1_);}
	.st3{fill:#1B1613;}
	.st4{fill:#FFFFFF;}
	.st5{fill:none;stroke:#1B1613;stroke-width:8.8059;stroke-linecap:round;stroke-miterlimit:10;}
</style>
<circle class="st0" cx="256" cy="256" r="183.7"/>
<path class="st1" d="M393.7,310.8c-31.7,0-57.3,25.7-57.3,57.3c0,16.8,7.2,32,18.8,42.4c32.6-21,58.2-52,72.3-88.8
	C418,314.9,406.4,310.8,393.7,310.8z"/>
<path class="st1" d="M118.6,310.8c31.7,0,57.3,25.7,57.3,57.3c0,16.8-7.2,32-18.8,42.4c-32.6-21-58.2-52-72.3-88.8
	C94.3,314.9,105.9,310.8,118.6,310.8z"/>
<linearGradient id="SVGID_1_" gradientUnits="userSpaceOnUse" x1="256" y1="81.3" x2="256" y2="434.7" gradientTransform="matrix(1 0 0 -1 0 514)">
	<stop  offset="0" style="stop-color:#FFFFFF;stop-opacity:0"/>
	<stop  offset="1" style="stop-color:#FFFFFF;stop-opacity:0.8"/>
</linearGradient>
<path class="st2" d="M256,432.7c-97.4,0-176.7-79.3-176.7-176.7S158.6,79.3,256,79.3S432.7,158.6,432.7,256S353.4,432.7,256,432.7z"
	/>
<g>
	<circle class="st3" cx="347.7" cy="277" r="32.5"/>
	<circle class="st4" cx="347.7" cy="271" r="22.5"/>
</g>
<g>
	<circle class="st3" cx="164.3" cy="277" r="32.5"/>
	<circle class="st4" cx="164.3" cy="271" r="22.5"/>
</g>
<path class="st5" d="M256,359.2c0,11-8.9,19.9-19.9,19.9s-19.9-8.9-19.9-19.9"/>
<path class="st5" d="M295.7,359.2c0,11-8.9,19.9-19.9,19.9s-19.9-8.9-19.9-19.9"/>
</svg>
