<?xml version="1.0" ?><svg height="60px" id="Layer_1" style="enable-background:new 0 0 60 60;" version="1.1" viewBox="0 0 60 60" width="60px" xml:space="preserve" xmlns="http://www.w3.org/2000/svg" xmlns:xlink="http://www.w3.org/1999/xlink"><style type="text/css">
	.st0{fill:#4D5770;}
	.st1{fill:#232E38;}
	.st2{fill:#6ED4BF;}
	.st3{fill:#DCE5E8;}
	.st4{fill:#414154;}
	.st5{fill:#BAC2C4;}
	.st6{fill:#D9E3E6;}
	.st7{fill:#0E1011;}
	.st8{fill:#5D5D78;}
	.st9{fill:#2B3F15;}
	.st10{opacity:0.5;fill:#232E38;}
	.st11{fill:#4F687D;}
	.st12{fill:#404E70;}
	.st13{fill:#FFFFFF;}
	.st14{fill:#E1EAED;}
	.st15{fill:#5B6875;}
	.st16{fill:#FA4E70;}
	.st17{fill:#2E1A0F;}
	.st18{fill:#FFBE4D;}
	.st19{fill:#69402A;}
	.st20{fill:#222222;}
	.st21{fill:#BECACF;}
	.st22{fill:#734E1D;}
	.st23{opacity:0.5;}
	.st24{fill:#09092E;}
	.st25{fill:#F24444;}
	.st26{fill:#3C4C69;}
	.st27{fill:#27B51F;}
	.st28{fill:#FFCC00;}
	.st29{fill:#2E85E2;}
	.st30{fill:#66728A;}
	.st31{opacity:0.3;fill:#0D333B;}
	.st32{fill:#3F291E;}
	.st33{fill:#30304D;}
	.st34{fill:#8FFC48;}
	.st35{fill:#FA466A;}
	.st36{fill:#DAE5E8;}
	.st37{fill:#C5D7DB;}
	.st38{fill:#ADC7C7;}
	.st39{fill:#76D03B;}
	.st40{fill:#6ED49A;}
	.st41{fill:#ABB8BF;}
	.st42{fill:#FF7432;}
	.st43{fill:#687387;}
	.st44{fill:#404A5E;}
	.st45{fill:#5E7B96;}
	.st46{fill:#3CC2A7;}
	.st47{fill:#394145;}
	.st48{fill:#D9FFFE;}
	.st49{fill:#DAE3E6;}
	.st50{fill:#ADC1C7;}
	.st51{fill:#49545E;}
	.st52{fill:#3F4952;}
	.st53{fill:#B8DFE3;}
	.st54{fill:#FC982B;}
	.st55{fill:#529E8F;}
	.st56{opacity:0.3;fill:#0D0D26;}
	.st57{fill:#E45544;}
	.st58{fill:#3E5263;}
	.st59{fill:#434D57;}
	.st60{fill:#4B5661;}
	.st61{fill:#718991;}
	.st62{fill:#5D6A78;}
	.st63{fill:#3F4951;}
	.st64{fill:#354554;}
	.st65{fill:#535F6B;}
	.st66{opacity:0.2;fill:#16191C;}
	.st67{fill:#333C42;}
	.st68{fill:#24292E;}
	.st69{fill:#778899;}
	.st70{fill:#99AFC4;}
	.st71{fill:#AFC8E0;}
	.st72{fill:#758696;}
	.st73{fill:#9AA8B5;}
	.st74{fill:#ABCFD3;}
	.st75{fill:#2F4A57;}
	.st76{fill:#E6EFF2;}
	.st77{fill:#353D45;}
	.st78{fill:#CCE6FF;}
	.st79{fill:#B1BFCC;}
	.st80{fill:#ABB9C7;}
	.st81{fill:#41505E;}
	.st82{fill:#D2DBDE;}
	.st83{fill:#6C7FE0;}
	.st84{fill:#383128;}
	.st85{fill:#EFF9FC;}
	.st86{fill-rule:evenodd;clip-rule:evenodd;fill:#FA4E70;}
	.st87{fill:#FBB040;}
	.st88{fill:#CCFB40;}
	.st89{fill:#BBC9ED;}
	.st90{fill:#7BA7B3;}
	.st91{fill:#7B8BB3;}
	.st92{fill:#859DB3;}
	.st93{fill:#FBE100;}
	.st94{fill:#96B2B3;}
</style><path class="st15" d="M30,3C15.0883179,3,3,15.0882568,3,30c0,14.9116211,12.0883179,27,27,27s27-12.0883789,27-27  C57,15.0881348,44.9116821,3,30,3z M35,39H25l-5-9l5-9h10l5,9L35,39z"/><g class="st23"><path class="st24" d="M56.0641479,37.0498047H36.0834351L35,39h-0.246582   C34.8342896,39.0211182,34.9125366,39.0498047,35,39.0498047h20.4407349   C55.6738892,38.3945313,55.8813477,37.727356,56.0641479,37.0498047z"/><path class="st24" d="M36.6206055,55.4541016L27.2992554,39h-2.2984619l9.8869019,17.4521484l0.052063,0.0889282   c0.6921997-0.1280518,1.3759155-0.2796021,2.0485229-0.4594116L36.6206055,55.4541016z"/><path class="st24" d="M39.9799805,29.9639282l10.1268311-17.9785767c-0.4642944-0.5178833-0.9508667-1.0147095-1.4534302-1.4953613   L38.840332,27.9125977L39.9799805,29.9639282z"/><path class="st24" d="M20.0153809,30.02771l-9.986084,17.9610596l-0.062561,0.1107788   c0.460022,0.5089111,0.9434204,0.9956665,1.4405518,1.4682007l9.7507935-17.4832153L20.0153809,30.02771z"/><path class="st24" d="M23.5736084,3.7758789l0.0396729,0.0751953L32.8640747,21h2.1221313   c0.0003662-0.1610107-0.0244751-0.322937-0.1063232-0.4746094L25.619812,3.3590088   C24.9284058,3.4718018,24.2462769,3.6115723,23.5736084,3.7758789z"/><polygon class="st24" points="24.9393921,38.8909302 24.9399414,38.8925781 24.9595947,38.9272461  "/><path class="st24" d="M3.8932495,23.1000977H23.833252l1.111145-2H4.5085449   C4.27948,21.7561035,4.0719604,22.4220581,3.8932495,23.1000977z"/></g></svg>