<?xml version="1.0" encoding="UTF-8"?>
<svg width="512px" height="512px" viewBox="0 0 512 512" version="1.1" xmlns="http://www.w3.org/2000/svg" xmlns:xlink="http://www.w3.org/1999/xlink">
    <!-- Generator: Sketch 41.2 (35397) - http://www.bohemiancoding.com/sketch -->
    <title>filterGris</title>
    <desc>Created with Sketch.</desc>
    <defs>
        <circle id="path-1" cx="256" cy="256" r="256"></circle>
    </defs>
    <g id="Page-1" stroke="none" stroke-width="1" fill="none" fill-rule="evenodd">
        <g id="Artboard-3" transform="translate(-2354.000000, -1239.000000)">
            <g id="filterGris" transform="translate(2354.000000, 1239.000000)">
                <g id="Group">
                    <g>
                        <g id="bg" fill="#5C6BC0">
                            <circle id="Oval" cx="256" cy="256" r="256"></circle>
                        </g>
                        <g id="wand">
                            <g id="Clipped">
                                <g id="Group-3">
                                    <mask id="mask-2" fill="white">
                                        <use xlink:href="#path-1"></use>
                                    </mask>
                                    <use id="Oval" fill="#9B9B9B" xlink:href="#path-1"></use>
                                    <g id="Group" mask="url(#mask-2)">
                                        <g transform="translate(49.000000, 67.000000)">
                                            <g transform="translate(0.000000, 106.000000)">
                                                <polygon id="Shape" fill="#212121" points="17.8 299.8 0.4 282.4 232 51 249.5 68.4"></polygon>
                                                <rect id="Rectangle-path" fill="#F5F5F5" transform="translate(266.074325, 34.336595) rotate(45.000000) translate(-266.074325, -34.336595) " x="253.774443" y="-1.5130612" width="24.5997641" height="71.6993124"></rect>
                                            </g>
                                            <g transform="translate(161.000000, 0.000000)">
                                                <polygon id="Shape" fill="#F5F5F5" points="48.3 0.9 59.6 11.1 74.4 7.6 68.2 21.5 76.2 34.5 61 32.9 51.1 44.5 48 29.6 33.9 23.7 47.1 16.1"></polygon>
                                                <polygon id="Shape" fill="#FFFFFF" points="18 74.4 14.3 79.3 16.2 85.1 10.4 83.1 5.5 86.8 5.6 80.6 0.6 77.1 6.4 75.3 8.3 69.4 11.8 74.5"></polygon>
                                                <polygon id="Shape" fill="#FFFFFF" points="59.8 123.8 53.9 131.5 57 140.8 47.8 137.6 40 143.4 40.2 133.7 32.2 128 41.5 125.2 44.5 115.9 50 123.9"></polygon>
                                                <polygon id="Shape" fill="#FFFFFF" points="100.9 93.9 97.2 98.8 99.1 104.6 93.3 102.6 88.4 106.3 88.5 100.1 83.5 96.5 89.4 94.7 91.2 88.9 94.7 93.9"></polygon>
                                                <polygon id="Shape" fill="#FFFFFF" points="136.5 38.6 130.6 46.4 133.7 55.6 124.5 52.4 116.7 58.2 116.9 48.5 109 42.8 118.3 40 121.2 30.7 126.8 38.7"></polygon>
                                                <polygon id="Shape" fill="#F5F5F5" points="205.8 20.7 200 34.8 208.3 47.5 193.1 46.4 183.6 58.2 180 43.4 165.7 38 178.7 30 179.5 14.8 191.1 24.6"></polygon>
                                                <polygon id="Shape" fill="#F5F5F5" points="171.1 97.4 167.4 102.3 169.3 108.2 163.5 106.2 158.6 109.8 158.7 103.7 153.7 100.1 159.6 98.3 161.4 92.5 164.9 97.5"></polygon>
                                                <polygon id="Shape" fill="#FFFFFF" points="244.5 85.2 240.8 90.1 242.8 95.9 237 93.9 232 97.6 232.1 91.4 227.1 87.9 233 86.1 234.8 80.2 238.4 85.2"></polygon>
                                                <polygon id="Shape" fill="#FFFFFF" points="176.1 148.2 170.3 156 173.4 165.2 164.2 162 156.4 167.8 156.5 158.1 148.6 152.4 157.9 149.6 160.8 140.3 166.4 148.3"></polygon>
                                                <polygon id="Shape" fill="#FFFFFF" points="256.1 148.1 249.3 161.7 256.7 175 241.6 172.8 231.3 183.9 228.7 168.9 214.9 162.5 228.4 155.4 230.3 140.3 241.2 151"></polygon>
                                                <polygon id="Shape" fill="#FFFFFF" points="159.7 205.8 158.5 221 170.3 230.6 155.5 234.2 150.1 248.4 142.1 235.4 126.9 234.6 136.8 223 132.8 208.3 146.9 214.1"></polygon>
                                                <polygon id="Shape" fill="#F5F5F5" points="235.8 221.2 230 229 233.1 238.2 223.9 235.1 216.1 240.9 216.2 231.1 208.3 225.5 217.6 222.6 220.5 213.4 226.1 221.3"></polygon>
                                            </g>
                                        </g>
                                    </g>
                                </g>
                            </g>
                        </g>
                    </g>
                </g>
            </g>
        </g>
    </g>
</svg>