<?xml version="1.0" encoding="utf-8"?>
<!-- Generator: Adobe Illustrator 21.0.2, SVG Export Plug-In . SVG Version: 6.00 Build 0)  -->
<svg version="1.1" id="Capa_1" xmlns="http://www.w3.org/2000/svg" xmlns:xlink="http://www.w3.org/1999/xlink" x="0px" y="0px"
	 viewBox="0 0 205 198" style="enable-background:new 0 0 205 198;" xml:space="preserve">
<style type="text/css">
	.st0{fill:#E4CCB4;}
	.st1{fill:#FFFFFF;}
	.st2{fill:#D6CA5C;}
	.st3{font-family:'AzoSans-Regular';}
	.st4{font-size:20px;}
	.st5{fill:#4A4A4A;}
	.st6{font-family:'ComicSansMS-Bold';}
	.st7{font-size:26px;}
	.st8{fill:#F9C921;}
	.st9{font-family:'AzoSans-Bold';}
	.st10{font-size:35px;}
</style>
<title>texto1</title>
<desc>Created with Sketch.</desc>
<g id="Page-1">
	<g id="Artboard-3" transform="translate(-574.000000, -182.000000)">
		<g id="texto1" transform="translate(560.000000, 182.000000)">
			<g id="Group-2">
				<g id="Group" transform="translate(89.000000, 0.000000)">
					<g id="_x31_490592015_x5F_002_x5F_Batman">
						<g id="_x30_02_x5F_Batman">
							<polygon id="Shape" class="st0" points="25.3,60.6 24.1,61.1 24.1,61.1 24.1,61.1 24.1,61.1 24.1,61.1 23.3,60.7 8.5,56.8 
								12.2,75.9 36.1,75.9 39.8,56.8 							"/>
							<polygon id="Shape_1_" points="30.1,65.5 18.1,65.5 15.6,68.4 18.1,67.2 30.1,67.2 32.7,68.4 							"/>
							<path id="Shape_2_" d="M42.4,0.2c-1.1,2.2-4.8,13.2-6.1,14.2c-3.7-1-8.1-1.7-11.8-1.8v0c-0.1,0-0.2,0-0.3,0s-0.2,0-0.3,0v0
								c-3.7,0.1-8.1,0.8-11.8,1.8c-1.3-1-5-12-6.1-14.2C4.3-3.1,0.4,44.5,0.4,44.8c0,1.9,3.2,11.1,3.2,11.3l8.6,19.9L8.5,56.8
								L24.1,61h0l15.6-4.1l-3.7,19.1l8.6-19.9c0.1-0.1,3.2-9.4,3.2-11.3C47.9,44.5,44-3.1,42.4,0.2z"/>
							<path id="Shape_3_" class="st1" d="M30.7,50.7c0,0,5.7-5.5,8.9-6.5c3.2-1,1.3,4-1.1,4.7C36.2,49.6,30.7,50.7,30.7,50.7z"/>
							<path id="Shape_4_" class="st1" d="M17.5,50.7c0,0-5.7-5.5-8.9-6.5c-3.2-1-1.3,4,1.1,4.7C12.1,49.6,17.5,50.7,17.5,50.7z"/>
						</g>
					</g>
				</g>
				<text transform="matrix(1 0 0 1 33.27 93)" class="st2 st3 st4">Quién necesita un</text>
				<text transform="matrix(1 0 0 1 33.521 126)" class="st5 st6 st7">Super Héroe</text>
				<text transform="matrix(1 0 0 1 30.47 156)" class="st2 st3 st4">Cuando Tengo un</text>
				<text transform="matrix(1 0 0 1 13.5375 190)" class="st8 st9 st10">Super Papá</text>
				<text transform="matrix(1 0 0 1 198.3695 190)" class="st8 st3 st10"> </text>
				<text transform="matrix(1 0 0 1 203.5875 190)" class="st8 st3 st10">?</text>
			</g>
		</g>
	</g>
</g>
</svg>
